<svg xmlns="http://www.w3.org/2000/svg"  viewBox="0 0 32 32" width="50px" height="50px" fill="#141414"><path d="M 5 5 L 5 6 L 5 27 L 27 27 L 27 5 L 5 5 z M 7 7 L 25 7 L 25 25 L 7 25 L 7 7 z M 10 11 L 10 21 L 12 21 L 12 17 L 13 17 C 14.64497 17 16 15.64497 16 14 C 16 12.35503 14.64497 11 13 11 L 10 11 z M 12 13 L 13 13 C 13.56503 13 14 13.43497 14 14 C 14 14.56503 13.56503 15 13 15 L 12 15 L 12 13 z M 17 13 L 17 17 L 17 21 L 19 21 L 19 17 C 19 15.883334 19.883334 15 21 15 L 22 15 L 22 13 L 21 13 C 20.269312 13 19.59163 13.213648 19 13.560547 L 19 13 L 17 13 z"/></svg>