<svg xmlns="http://www.w3.org/2000/svg"  viewBox="0 0 32 32" width="50px" height="50px" fill="#141414"><path d="M 5 5 L 5 6 L 5 27 L 27 27 L 27 5 L 5 5 z M 7 7 L 25 7 L 25 25 L 7 25 L 7 7 z M 11.705078 11 L 9 19.560547 L 9 21 L 11 21 L 11 20 L 14 20 L 14 21 L 16 21 L 16 19.560547 L 13.294922 11 L 11.705078 11 z M 17 13 L 17 18 C 17 19.64497 18.35503 21 20 21 C 20.388348 21 20.657986 20.721014 21 20.583984 L 21 21 L 23 21 L 23 18 L 23 14 L 23 13 L 21 13 L 21 14 L 21 18 C 21 18.56503 20.56503 19 20 19 C 19.43497 19 19 18.56503 19 18 L 19 13 L 17 13 z M 12.5 15.121094 L 13.410156 18 L 11.589844 18 L 12.5 15.121094 z"/></svg>