<svg xmlns="http://www.w3.org/2000/svg"  viewBox="0 0 32 32" width="50px" height="50px" fill="var(--color-dark)"><path d="M 5 5 L 5 6 L 5 27 L 27 27 L 27 5 L 5 5 z M 7 7 L 25 7 L 25 25 L 7 25 L 7 7 z M 11.705078 11 L 9 19.560547 L 9 21 L 11 21 L 11 20 L 14 20 L 14 21 L 16 21 L 16 19.560547 L 13.294922 11 L 11.705078 11 z M 17 13 L 17 16 L 17 20 L 17 21 L 19 21 L 19 20 L 19 16 C 19 15.43497 19.43497 15 20 15 C 20.56503 15 21 15.43497 21 16 L 21 21 L 23 21 L 23 16 C 23 14.35503 21.64497 13 20 13 C 19.611652 13 19.342014 13.278986 19 13.416016 L 19 13 L 17 13 z M 12.5 15.121094 L 13.410156 18 L 11.589844 18 L 12.5 15.121094 z"/></svg>